{
  "accessors": [
    {
      "bufferView": 2,
      "componentType": 5126,
      "count": 65532,
      "max": [
        9.105979919433594,
        29.797136306762695,
        15.531360626220703
      ],
      "min": [
        -8.647945404052734,
        -29.957399368286133,
        -0.9041955471038818
      ],
      "type": "VEC3"
    },
    {
      "bufferView": 2,
      "byteOffset": 786384,
      "componentType": 5126,
      "count": 65532,
      "max": [
        1.0,
        1.0,
        1.0
      ],
      "min": [
        -1.0,
        -1.0,
        -1.0
      ],
      "type": "VEC3"
    },
    {
      "bufferView": 3,
      "componentType": 5126,
      "count": 65532,
      "max": [
        1.0,
        1.0,
        1.0,
        1.0
      ],
      "min": [
        -1.0,
        -1.0,
        -1.0,
        -1.0
      ],
      "type": "VEC4"
    },
    {
      "bufferView": 1,
      "componentType": 5126,
      "count": 65532,
      "max": [
        0.9969086647033691,
        0.9960734844207764
      ],
      "min": [
        0.000748120597563684,
        0.0002732270513661206
      ],
      "type": "VEC2"
    },
    {
      "bufferView": 1,
      "byteOffset": 524256,
      "componentType": 5126,
      "count": 65532,
      "max": [
        0.9969086647033691,
        0.9960734844207764
      ],
      "min": [
        0.000748120597563684,
        0.0002732270513661206
      ],
      "type": "VEC2"
    },
    {
      "bufferView": 1,
      "byteOffset": 1048512,
      "componentType": 5126,
      "count": 65532,
      "max": [
        0.9969086647033691,
        0.9960734844207764
      ],
      "min": [
        0.000748120597563684,
        0.0002732270513661206
      ],
      "type": "VEC2"
    },
    {
      "bufferView": 0,
      "componentType": 5125,
      "count": 251859,
      "type": "SCALAR"
    },
    {
      "bufferView": 2,
      "byteOffset": 1572768,
      "componentType": 5126,
      "count": 9356,
      "max": [
        8.114267349243164,
        25.857351303100586,
        8.261805534362793
      ],
      "min": [
        -8.1112642288208,
        -27.051822662353516,
        -0.4359018802642822
      ],
      "type": "VEC3"
    },
    {
      "bufferView": 2,
      "byteOffset": 1685040,
      "componentType": 5126,
      "count": 9356,
      "max": [
        0.9997569918632507,
        0.9863348603248596,
        1.0
      ],
      "min": [
        -0.9997560381889343,
        -0.9976556301116943,
        -0.875321090221405
      ],
      "type": "VEC3"
    },
    {
      "bufferView": 3,
      "byteOffset": 1048512,
      "componentType": 5126,
      "count": 9356,
      "max": [
        0.998075008392334,
        0.9999490976333618,
        0.9955453276634216,
        1.0
      ],
      "min": [
        -1.0,
        -0.9998242855072021,
        -0.9989364743232727,
        -1.0
      ],
      "type": "VEC4"
    },
    {
      "bufferView": 1,
      "byteOffset": 1572768,
      "componentType": 5126,
      "count": 9356,
      "max": [
        0.7224328517913818,
        0.5675336122512817
      ],
      "min": [
        0.14661191403865814,
        0.002036904916167259
      ],
      "type": "VEC2"
    },
    {
      "bufferView": 1,
      "byteOffset": 1647616,
      "componentType": 5126,
      "count": 9356,
      "max": [
        0.7224328517913818,
        0.5675336122512817
      ],
      "min": [
        0.14661191403865814,
        0.002036904916167259
      ],
      "type": "VEC2"
    },
    {
      "bufferView": 1,
      "byteOffset": 1722464,
      "componentType": 5126,
      "count": 9356,
      "max": [
        0.7224328517913818,
        0.5675336122512817
      ],
      "min": [
        0.14661191403865814,
        0.002036904916167259
      ],
      "type": "VEC2"
    },
    {
      "bufferView": 0,
      "byteOffset": 1007436,
      "componentType": 5125,
      "count": 29925,
      "type": "SCALAR"
    },
    {
      "bufferView": 2,
      "byteOffset": 1797312,
      "componentType": 5126,
      "count": 480,
      "max": [
        8.338008880615234,
        28.359529495239258,
        9.616768836975098
      ],
      "min": [
        -8.341459274291992,
        -28.51978874206543,
        -0.043448206037282944
      ],
      "type": "VEC3"
    },
    {
      "bufferView": 2,
      "byteOffset": 1803072,
      "componentType": 5126,
      "count": 480,
      "max": [
        0.9807920455932617,
        0.9807921648025513,
        0.7556092739105225
      ],
      "min": [
        -0.9807913899421692,
        -0.9807906150817871,
        -0.7556112408638
      ],
      "type": "VEC3"
    },
    {
      "bufferView": 1,
      "byteOffset": 1797312,
      "componentType": 5126,
      "count": 480,
      "max": [
        0.23016595840454102,
        0.9806994199752808
      ],
      "min": [
        0.014448439702391624,
        0.40266475081443787
      ],
      "type": "VEC2"
    },
    {
      "bufferView": 0,
      "byteOffset": 1127136,
      "componentType": 5125,
      "count": 1116,
      "type": "SCALAR"
    },
    {
      "bufferView": 2,
      "byteOffset": 1808832,
      "componentType": 5126,
      "count": 136,
      "max": [
        7.702524185180664,
        28.62830352783203,
        9.61677360534668
      ],
      "min": [
        -7.705974102020264,
        -28.788572311401367,
        6.982774257659912
      ],
      "type": "VEC3"
    },
    {
      "bufferView": 2,
      "byteOffset": 1810464,
      "componentType": 5126,
      "count": 136,
      "max": [
        1.0,
        1.0,
        0.0
      ],
      "min": [
        -1.0,
        -1.0,
        0.0
      ],
      "type": "VEC3"
    },
    {
      "bufferView": 3,
      "byteOffset": 1198208,
      "componentType": 5126,
      "count": 136,
      "max": [
        0.41536399722099304,
        0.4153635501861572,
        -0.9096522927284241,
        1.0
      ],
      "min": [
        -0.4153629541397095,
        -0.41536325216293335,
        -0.9096608757972717,
        -1.0
      ],
      "type": "VEC4"
    },
    {
      "bufferView": 1,
      "byteOffset": 1801152,
      "componentType": 5126,
      "count": 136,
      "max": [
        0.8697771430015564,
        0.1332440823316574
      ],
      "min": [
        0.7975965738296509,
        0.04989982023835182
      ],
      "type": "VEC2"
    },
    {
      "bufferView": 0,
      "byteOffset": 1131600,
      "componentType": 5125,
      "count": 384,
      "type": "SCALAR"
    }
  ],
  "asset": {
    "extras": {
      "author": "Ya (https://sketchfab.com/Yarik16)",
      "license": "SKETCHFAB Standard (https://sketchfab.com/licenses)",
      "source": "https://sketchfab.com/3d-models/yberpunk-bridge-de84589f5f6d4950b54902dc68c7202a",
      "title": "Сyberpunk Bridge"
    },
    "generator": "Sketchfab-16.8.0",
    "version": "2.0"
  },
  "bufferViews": [
    {
      "buffer": 0,
      "byteLength": 1133136,
      "name": "floatBufferViews",
      "target": 34963
    },
    {
      "buffer": 0,
      "byteLength": 1802240,
      "byteOffset": 1133136,
      "byteStride": 8,
      "name": "floatBufferViews",
      "target": 34962
    },
    {
      "buffer": 0,
      "byteLength": 1812096,
      "byteOffset": 2935376,
      "byteStride": 12,
      "name": "floatBufferViews",
      "target": 34962
    },
    {
      "buffer": 0,
      "byteLength": 1200384,
      "byteOffset": 4747472,
      "byteStride": 16,
      "name": "floatBufferViews",
      "target": 34962
    }
  ],
  "buffers": [
    {
      "byteLength": 5947856,
      "uri": "scene.bin"
    }
  ],
  "extensionsUsed": [
    "KHR_materials_emissive_strength",
    "KHR_materials_transmission"
  ],
  "images": [
    {
      "uri": "textures/bridge_baseColor.jpeg"
    },
    {
      "uri": "textures/bridge_metallicRoughness.png"
    },
    {
      "uri": "textures/bridge_normal.png"
    },
    {
      "uri": "textures/glass_normal.png"
    }
  ],
  "materials": [
    {
      "doubleSided": true,
      "name": "bridge",
      "normalTexture": {
        "index": 2,
        "texCoord": 1
      },
      "pbrMetallicRoughness": {
        "baseColorTexture": {
          "index": 0
        },
        "metallicRoughnessTexture": {
          "index": 1
        }
      }
    },
    {
      "doubleSided": true,
      "emissiveFactor": [
        1.0,
        0.021807634948988824,
        0.0
      ],
      "extensions": {
        "KHR_materials_emissive_strength": {
          "emissiveStrength": 8.232745864737401
        }
      },
      "name": "emission",
      "pbrMetallicRoughness": {
        "baseColorFactor": [
          1.0,
          0.27119792872178367,
          0.0,
          1.0
        ],
        "metallicFactor": 0.0,
        "roughnessFactor": 0.8040408205773457
      }
    },
    {
      "alphaMode": "BLEND",
      "doubleSided": true,
      "extensions": {
        "KHR_materials_transmission": {
          "transmissionFactor": 0.9574982527059446
        }
      },
      "name": "glass",
      "normalTexture": {
        "index": 3
      },
      "pbrMetallicRoughness": {
        "baseColorFactor": [
          0.8,
          0.8,
          0.8,
          0.25
        ],
        "metallicFactor": 0.0,
        "roughnessFactor": 0.7470177871865296
      }
    }
  ],
  "meshes": [
    {
      "name": "bridge_bridge_0",
      "primitives": [
        {
          "attributes": {
            "NORMAL": 1,
            "POSITION": 0,
            "TANGENT": 2,
            "TEXCOORD_0": 3,
            "TEXCOORD_1": 4,
            "TEXCOORD_2": 5
          },
          "indices": 6,
          "material": 0,
          "mode": 4
        }
      ]
    },
    {
      "name": "bridge_bridge_0",
      "primitives": [
        {
          "attributes": {
            "NORMAL": 8,
            "POSITION": 7,
            "TANGENT": 9,
            "TEXCOORD_0": 10,
            "TEXCOORD_1": 11,
            "TEXCOORD_2": 12
          },
          "indices": 13,
          "material": 0,
          "mode": 4
        }
      ]
    },
    {
      "name": "bridge_emission_0",
      "primitives": [
        {
          "attributes": {
            "NORMAL": 15,
            "POSITION": 14,
            "TEXCOORD_0": 16
          },
          "indices": 17,
          "material": 1,
          "mode": 4
        }
      ]
    },
    {
      "name": "bridge_glass_0",
      "primitives": [
        {
          "attributes": {
            "NORMAL": 19,
            "POSITION": 18,
            "TANGENT": 20,
            "TEXCOORD_0": 21
          },
          "indices": 22,
          "material": 2,
          "mode": 4
        }
      ]
    }
  ],
  "nodes": [
    {
      "children": [
        1
      ],
      "matrix": [
        1.0,
        0.0,
        0.0,
        0.0,
        0.0,
        2.220446049250313e-16,
        -1.0,
        0.0,
        0.0,
        1.0,
        2.220446049250313e-16,
        0.0,
        0.0,
        0.0,
        0.0,
        1.0
      ],
      "name": "Sketchfab_model"
    },
    {
      "children": [
        2
      ],
      "matrix": [
        0.009999999776482582,
        0.0,
        0.0,
        0.0,
        0.0,
        0.0,
        0.009999999776482582,
        0.0,
        0.0,
        -0.009999999776482582,
        0.0,
        0.0,
        0.0,
        0.0,
        0.0,
        1.0
      ],
      "name": "bridge.fbx"
    },
    {
      "children": [
        3
      ],
      "name": "RootNode"
    },
    {
      "children": [
        4,
        5,
        6,
        7
      ],
      "matrix": [
        100.0,
        0.0,
        0.0,
        0.0,
        0.0,
        -1.629206793918314e-05,
        -99.99999999999868,
        0.0,
        0.0,
        99.99999999999868,
        -1.629206793918314e-05,
        0.0,
        0.0,
        0.0,
        0.0,
        1.0
      ],
      "name": "bridge"
    },
    {
      "mesh": 0,
      "name": "bridge_bridge_0"
    },
    {
      "mesh": 1,
      "name": "bridge_bridge_0"
    },
    {
      "mesh": 2,
      "name": "bridge_emission_0"
    },
    {
      "mesh": 3,
      "name": "bridge_glass_0"
    }
  ],
  "samplers": [
    {
      "magFilter": 9729,
      "minFilter": 9987,
      "wrapS": 10497,
      "wrapT": 10497
    }
  ],
  "scene": 0,
  "scenes": [
    {
      "name": "Sketchfab_Scene",
      "nodes": [
        0
      ]
    }
  ],
  "textures": [
    {
      "sampler": 0,
      "source": 0
    },
    {
      "sampler": 0,
      "source": 1
    },
    {
      "sampler": 0,
      "source": 2
    },
    {
      "sampler": 0,
      "source": 3
    }
  ]
}
